# xmcd
# 
# Track frame offsets:
#     150
#     19056
#     44908
#     65898
#     92408
#     115474
#     142360
#     159178
#     188796
#     214322
#     240092
#     263856
#     289476
#     309518
#     326982
# 
# Disc length: 4650
# 
# Revision: 0
# Processed by: cddbd v1.5.2PL0 Copyright (c) Steve Scherf et al.
# Submitted via: fre:ac v1.1beta1pre2
# 
DISCID=ec12280f
DTITLE=Bon Jovi - Cross Road
DYEAR=1994
DGENRE=Heavy Metal
TTITLE0=Livin' On A Prayer
TTITLE1=Keep The Faith
TTITLE2=Someday I'll Be Saturday Night
TTITLE3=Always
TTITLE4=Wanted Dead Or Alive
TTITLE5=Lay Your Hands On Me
TTITLE6=You Give Love A Bad Name
TTITLE7=Bed Of Roses
TTITLE8=Blaze Of Glory
TTITLE9=Tokyo Road
TTITLE10=Bad Medicine
TTITLE11=I'll Be There For You
TTITLE12=In and Out Of Love
TTITLE13=Runaway
TTITLE14=Never Say Goodbye
EXTD=YEAR: 1994
EXTT0=
EXTT1=
EXTT2=
EXTT3=
EXTT4=
EXTT5=
EXTT6=
EXTT7=
EXTT8=
EXTT9=
EXTT10=
EXTT11=
EXTT12=
EXTT13=
EXTT14=
PLAYORDER=
